<svg xmlns="http://www.w3.org/2000/svg" viewBox="0 0 500 400"><ellipse cx="258" cy="340" rx="108" ry="14" fill="#17261f" opacity=".3"/><circle cx="252" cy="185" r="139" fill="#edce78" opacity=".08"/><path d="m144 112 107 118 107-118Z" fill="#e7d8ad"/><path d="m160 128 91 99 91-99Z" fill="#d58961"/><path d="M251 230v99m-50 4h100" stroke="#e7d8ad" stroke-width="9" stroke-linecap="round"/><circle cx="334" cy="102" r="35" fill="#edce78"/><circle cx="334" cy="102" r="26" stroke="#f6e6a0" stroke-width="3" fill="none"/><path d="M334 77v50m-25-25h50m-43-18 36 36m-36 0 36-36" stroke="#f6e6a0" stroke-width="2"/><path d="m178 91 109 104" stroke="#536742" stroke-width="5"/><ellipse cx="188" cy="105" rx="13" ry="9" fill="#7b8b50" transform="rotate(40 188 105)"/><path d="m92 213 5 13 13 5-13 5-5 13-5-13-13-5 13-5Zm307-34 4 10 10 4-10 4-4 10-4-10-10-4 10-4Z" fill="#edce78"/></svg>
